<svg width="38" height="38" viewBox="0 0 38 38" fill="none" xmlns="http://www.w3.org/2000/svg">
<g clip-path="url(#clip0)">
<path d="M36.8233 25.4915C34.2555 16.8252 26.4488 10.7648 17.4153 10.3406V3.99203C17.4153 3.35241 17.0305 2.7746 16.4384 2.52918C15.8463 2.28221 15.1655 2.41995 14.7128 2.87271L0.464261 17.1212C-0.154733 17.7402 -0.154733 18.7408 0.464261 19.3598L14.7128 33.6083C15.1655 34.0611 15.8464 34.1988 16.4384 33.9519C17.0305 33.7081 17.4153 33.1286 17.4153 32.489V24.3421C20.4897 24.0302 28.784 24.3453 35.0534 34.8828C35.332 35.353 35.8291 35.5921 36.3547 35.5921C36.5147 35.5921 36.6745 35.5699 36.8344 35.5271C37.5199 35.3387 37.9981 34.6405 37.9981 33.9281C38.0313 31.0674 37.6355 28.2288 36.8233 25.4915Z" fill="#6272A4"/>
</g>
<defs>
<clipPath id="clip0">
<rect width="38" height="38" fill="white"/>
</clipPath>
</defs>
</svg>
